<?xml version="1.0" encoding="utf-8"?>
<!-- Generator: Adobe Illustrator 19.1.0, SVG Export Plug-In . SVG Version: 6.00 Build 0)  -->
<!DOCTYPE svg PUBLIC "-//W3C//DTD SVG 1.1//EN" "http://www.w3.org/Graphics/SVG/1.1/DTD/svg11.dtd">
<svg version="1.1" xmlns="http://www.w3.org/2000/svg" xmlns:xlink="http://www.w3.org/1999/xlink" x="0px" y="0px"
	 viewBox="0 0 196 196.1" style="enable-background:new 0 0 196 196.1;" xml:space="preserve">
<style type="text/css">
	.st0{fill:#F15623;}
	.st1{fill:#CC2036;}
	.st2{fill:#CBE3EE;}
	.st3{fill:#4167B1;}
	.st4{fill:#E62F25;}
	.st5{fill:#FFFFFF;}
</style>
<g id="Layer_1">
</g>
<g id="Layer_2">
	<path class="st0" d="M196,102.7c0,3.7-0.2,7.4-0.6,11l-13.6-1.5l-17.4-1.9l-71.1-7.7l-3-71.5l-0.7-17.5L88.9,0.1
		C90.4,0,91.8,0,93.2,0C150,0,196,46,196,102.7z"/>
	<path class="st1" d="M164.4,110.4c-3.6,34.2-31.3,61.1-65.8,63.7l-5.3-71.3L164.4,110.4z"/>
	<path class="st2" d="M100.2,195.9c-2.3,0.2-4.6,0.3-6.9,0.3c-49.8,0-90.5-39-93.2-88.1l18.3-1l74.9-4.3l5.5,74.8L100.2,195.9z"/>
	<path class="st3" d="M93.2,102.7l-71.4,4.1l-17.5,1c-0.1-1.7-0.2-3.4-0.2-5.1c0-26.6,11.7-50.4,30.1-66.8l11.6,13.1L93.2,102.7z"/>
	<path class="st4" d="M93.2,102.7L45.9,49.1C57.8,38.6,73.3,32,90.2,31.2L93.2,102.7z"/>
</g>
<g id="_x3C_Layer_x3E_">
	<g>
		<path class="st5" d="M107.2,71.9h-1.5v-2h-5.4v4.7h4.2v-1h1.3V77h-1.3v-1h-4.2v4.8h1.6v1.8h-4.9v-1.8h1.5V70h-1.5v-1.8h10.1V71.9z
			"/>
		<path class="st5" d="M118.2,80.3l-2.3,2.3h-4.8l-2.3-2.3v-9.9l2.2-2.2h5l2.2,2.2V80.3z M111.7,69.9l-1.2,1.2v8.4l1.3,1.3h3.4
			l1.3-1.3v-8.4l-1.2-1.2H111.7z"/>
		<path class="st5" d="M129.4,80.3l-2.3,2.3h-4.8l-2.3-2.3v-9.9l2.2-2.2h5l2.2,2.2V80.3z M123,69.9l-1.2,1.2v8.4l1.3,1.3h3.4
			l1.3-1.3v-8.4l-1.2-1.2H123z"/>
		<path class="st5" d="M141.3,72.4h-1.5v-2.5h-2.8v11h1.7v1.8h-5.2v-1.8h1.7v-11h-2.8v2.5h-1.5v-4.2h10.5V72.4z"/>
		<path class="st5" d="M152.7,73.6l-1.3,1.3l1.4,1.4v4.1l-2.2,2.1h-8v-1.8h1.5V69.9h-1.5v-1.8h8l2,2V73.6z M145.9,69.9v4.3h4l1-1V71
			l-1-1.1H145.9z M145.9,75.8v5h4l1.1-1.1v-2.9l-1-1H145.9z"/>
		<path class="st5" d="M163.8,80.8h1.6v1.8h-4.8v-1.8h1.3l-0.7-2.6h-4.3l-0.7,2.6h1.2v1.8H153v-1.8h1.6l3-10.9h-1.6v-1.8h4.6
			L163.8,80.8z M157.1,77.1h3.8l-1.9-7L157.1,77.1z"/>
		<path class="st5" d="M171.6,69.9H170v10.9h5.2v-2.3h1.5v4.1h-10.1v-1.8h1.5V69.9h-1.5v-1.8h4.9V69.9z"/>
		<path class="st5" d="M183,69.9h-1.6v10.9h5.2v-2.3h1.5v4.1h-10.1v-1.8h1.5V69.9h-1.5v-1.8h4.9V69.9z"/>
	</g>
	<g>
		<path class="st2" d="M55,54.8V56H54v-0.7l-0.6-0.6h-2l-0.6,0.6v1.5l0.5,0.4h2.9l1,1v2.7l-1.3,1.3H51l-1.3-1.3v-1.6h1.1v1.1
			l0.7,0.7h2l0.6-0.7v-1.8l-0.4-0.5h-2.9l-1-1v-2.4l1.2-1.2h2.9L55,54.8z"/>
		<path class="st2" d="M61.8,60.8l-1.4,1.4h-2.8l-1.4-1.4v-5.9l1.3-1.3h2.9l1.3,1.3V60.8z M57.9,54.7l-0.7,0.7v5l0.7,0.7h2l0.7-0.7
			v-5L60,54.7H57.9z"/>
		<path class="st2" d="M68.9,55.8H68v-1.2h-3.2v2.8h2.5v-0.6h0.8v1.9h-0.8v-0.6h-2.5v2.9h1v1.1h-2.9v-1.1h0.9v-6.4h-0.9v-1.1h6V55.8
			z"/>
		<path class="st2" d="M75.7,56.1h-0.9v-1.5h-1.7v6.5h1v1.1h-3.1v-1.1h1v-6.5h-1.7v1.5h-0.9v-2.5h6.2V56.1z"/>
		<path class="st2" d="M82.5,56.8l-0.8,0.8l0.8,0.8v2.4l-1.3,1.3h-4.8v-1.1h0.9v-6.5h-0.9v-1.1h4.8l1.2,1.2V56.8z M78.5,54.7v2.5
			h2.4l0.6-0.6v-1.3l-0.6-0.6H78.5z M78.5,58.1v3h2.4l0.6-0.7v-1.7l-0.6-0.6H78.5z"/>
		<path class="st2" d="M89.1,61.1h1v1.1h-2.8v-1.1H88l-0.4-1.6H85l-0.4,1.6h0.7v1.1h-2.6v-1.1h0.9l1.8-6.5h-1v-1.1h2.7L89.1,61.1z
			 M85.2,58.9h2.3l-1.1-4.2L85.2,58.9z"/>
		<path class="st2" d="M93.7,54.7h-0.9v6.5h3.1v-1.4h0.9v2.4h-6v-1.1h0.9v-6.5h-0.9v-1.1h2.9V54.7z"/>
		<path class="st2" d="M100.5,54.7h-0.9v6.5h3.1v-1.4h0.9v2.4h-6v-1.1h0.9v-6.5h-0.9v-1.1h2.9V54.7z"/>
	</g>
	<g>
		<path class="st2" d="M17.5,92.7l-0.9,0.9l1,1v2.9L16,99.1h-5.7v-1.3h1.1v-7.7h-1.1v-1.3H16l1.4,1.4V92.7z M12.7,90.1v3h2.8
			l0.7-0.7v-1.6l-0.7-0.7H12.7z M12.7,94.2v3.6h2.8l0.8-0.8v-2l-0.7-0.7H12.7z"/>
		<path class="st2" d="M25.4,97.8h1.2v1.3h-3.4v-1.3H24l-0.5-1.9h-3.1l-0.5,1.9h0.9v1.3h-3.1v-1.3h1.1l2.1-7.7h-1.2v-1.3H23
			L25.4,97.8z M20.6,95.2h2.7l-1.3-5L20.6,95.2z"/>
		<path class="st2" d="M33.3,90.3v1.4h-1.3v-0.9l-0.7-0.7h-2.4l-0.7,0.7v1.8l0.6,0.5h3.5l1.2,1.1v3.2l-1.5,1.5h-3.4L27,97.5v-1.9
			h1.3V97l0.8,0.8h2.4l0.8-0.8v-2.1l-0.5-0.5h-3.5L27,93.2v-2.9l1.4-1.4h3.5L33.3,90.3z"/>
		<path class="st2" d="M42.8,90.1h-1.2l-2.2,2.5l2.4,5.2h1v1.3h-3.3v-1.3h1l-2-4.3l-1.4,1.6v2.7H38v1.3h-3.3v-1.3h1.1v-7.7h-1.1
			v-1.3H38v1.3h-0.9v3.7l3.3-3.7h-0.8v-1.3h3.3V90.1z"/>
		<path class="st2" d="M51,91.5H50v-1.4h-3.8v3.1h2.6v-0.7h0.9v2.3h-0.9v-0.7h-2.6v3.6H50v-1.4H51v2.6h-7.2v-1.3h1.1v-7.7h-1.1v-1.3
			H51V91.5z"/>
		<path class="st2" d="M59.4,91.8h-1.1V90h-2v7.8h1.2v1.3h-3.7v-1.3h1.2V90h-2v1.8H52v-3h7.4V91.8z"/>
		<path class="st2" d="M67.5,92.7l-0.9,0.9l1,1v2.9L66,99.1h-5.7v-1.3h1.1v-7.7h-1.1v-1.3H66l1.4,1.4V92.7z M62.7,90.1v3h2.8
			l0.7-0.7v-1.6l-0.7-0.7H62.7z M62.7,94.2v3.6h2.8l0.8-0.8v-2l-0.7-0.7H62.7z"/>
		<path class="st2" d="M75.4,97.8h1.2v1.3h-3.4v-1.3h0.9l-0.5-1.9h-3.1L70,97.8h0.9v1.3h-3.1v-1.3h1.1l2.1-7.7h-1.2v-1.3h3.3
			L75.4,97.8z M70.6,95.2h2.7l-1.3-5L70.6,95.2z"/>
		<path class="st2" d="M80.9,90.1h-1.1v7.7h3.7v-1.6h1.1v2.9h-7.1v-1.3h1.1v-7.7h-1.1v-1.3h3.4V90.1z"/>
		<path class="st2" d="M88.9,90.1h-1.1v7.7h3.7v-1.6h1.1v2.9h-7.1v-1.3h1.1v-7.7h-1.1v-1.3h3.4V90.1z"/>
	</g>
	<g>
		<path class="st4" d="M20,136.3l-1.1,1.1l1.1,1.1v3.3l-1.7,1.7h-6.5v-1.4h1.2v-8.8h-1.2V132h6.5l1.6,1.6V136.3z M14.5,133.4v3.5
			h3.2l0.8-0.8v-1.8l-0.8-0.8H14.5z M14.5,138.1v4.1h3.2l0.9-0.9v-2.3l-0.8-0.8H14.5z"/>
		<path class="st4" d="M29,142.2h1.3v1.4h-3.9v-1.4h1l-0.6-2.1h-3.5l-0.6,2.1h1v1.4h-3.6v-1.4h1.3l2.4-8.8h-1.3V132h3.7L29,142.2z
			 M23.6,139.1h3.1l-1.5-5.6L23.6,139.1z"/>
		<path class="st4" d="M38.1,133.6v1.6h-1.4v-1l-0.8-0.8h-2.7l-0.8,0.8v2.1l0.6,0.6h4l1.3,1.3v3.7l-1.7,1.7h-3.9l-1.7-1.7v-2.1h1.4
			v1.5l0.9,0.9h2.7l0.9-0.9v-2.4l-0.6-0.6h-4l-1.3-1.3v-3.3l1.6-1.6h4L38.1,133.6z"/>
		<path class="st4" d="M47.8,135h-1.2v-1.6h-4.3v3.5h2.9v-0.8h1v2.6h-1V138h-2.9v4.1h4.3v-1.6h1.2v3h-8.2v-1.4h1.2v-8.8h-1.2V132
			h8.2V135z"/>
		<path class="st4" d="M57.4,136.3l-1.1,1.1l1.1,1.1v3.3l-1.7,1.7h-6.5v-1.4h1.2v-8.8h-1.2V132h6.5l1.6,1.6V136.3z M52,133.4v3.5
			h3.2L56,136v-1.8l-0.8-0.8H52z M52,138.1v4.1h3.2l0.9-0.9v-2.3l-0.8-0.8H52z"/>
		<path class="st4" d="M66.4,142.2h1.3v1.4h-3.9v-1.4h1l-0.6-2.1h-3.5l-0.6,2.1h1v1.4h-3.6v-1.4h1.3l2.4-8.8H60V132h3.7L66.4,142.2z
			 M61,139.1h3.1l-1.5-5.6L61,139.1z"/>
		<path class="st4" d="M72.6,133.4h-1.3v8.8h4.2v-1.8h1.2v3.3h-8.1v-1.4h1.2v-8.8h-1.2V132h3.9V133.4z"/>
		<path class="st4" d="M81.8,133.4h-1.3v8.8h4.2v-1.8H86v3.3h-8.1v-1.4h1.2v-8.8h-1.2V132h3.9V133.4z"/>
	</g>
	<g>
		<path class="st2" d="M102.6,120v1.3h-1.1v-0.8l-0.7-0.7h-2.1l-0.7,0.7v1.6l0.5,0.5h3.1l1,1v2.9l-1.4,1.4h-3.1l-1.4-1.4v-1.7H98
			v1.2l0.7,0.7h2.1l0.7-0.7v-1.9l-0.5-0.5H98l-1.1-1V120l1.3-1.3h3.1L102.6,120z"/>
		<path class="st2" d="M109.9,126.4l-1.5,1.5h-3l-1.5-1.5v-6.3l1.4-1.4h3.2l1.4,1.4V126.4z M105.7,119.8l-0.7,0.7v5.4l0.8,0.8h2.1
			l0.8-0.8v-5.4l-0.7-0.7H105.7z"/>
		<path class="st2" d="M116.9,121.7h-1.1v-1.3l-0.7-0.7H113l-0.8,0.8v5.2l0.9,0.9h2l0.7-0.7v-1.5h1.1v1.9l-1.4,1.4h-2.9l-1.6-1.6v-6
			l1.5-1.5h3.1l1.3,1.3V121.7z"/>
		<path class="st2" d="M124,121.7h-1.1v-1.3l-0.7-0.7h-2.1l-0.8,0.8v5.2l0.9,0.9h2l0.7-0.7v-1.5h1.1v1.9l-1.4,1.4h-2.9l-1.6-1.6v-6
			l1.5-1.5h3.1l1.3,1.3V121.7z"/>
		<path class="st2" d="M131.6,121h-1v-1.2h-3.4v2.8h2.3V122h0.8v2.1h-0.8v-0.6h-2.3v3.3h3.4v-1.2h1v2.4h-6.5v-1.1h1v-6.9h-1v-1.1
			h6.4V121z"/>
		<path class="st2" d="M139.3,120v2.6l-1.2,1.2h-0.7l1.5,2.9h0.8v1.1h-2.8v-1.1h0.8l-1.5-2.9h-1.3v2.9h0.8v1.1h-2.9v-1.1h1v-6.9h-1
			v-1.1h5.3L139.3,120z M134.9,119.8v3.1h2.7l0.7-0.7v-1.8l-0.7-0.7H134.9z"/>
	</g>
	<g>
	</g>
	<g>
	</g>
	<g>
	</g>
	<g>
	</g>
	<g>
	</g>
	<g>
	</g>
</g>
</svg>
